<?xml version="1.0" encoding="utf-8"?>
<!-- Generator: Adobe Illustrator 19.0.0, SVG Export Plug-In . SVG Version: 6.00 Build 0)  -->
<svg version="1.1" id="Layer_1" xmlns="http://www.w3.org/2000/svg" xmlns:xlink="http://www.w3.org/1999/xlink" x="0px" y="0px"
	 viewBox="-41 164.9 512 512" style="enable-background:new -41 164.9 512 512;" xml:space="preserve">
<style type="text/css">
	.st0{fill:#EA4C58;}
	.st1{fill:#FFFFFF;}
</style>
<path d="M397.2,580c4.8,9,4.5,19.7-0.7,28.4c-5.3,8.8-14.5,14-24.7,14h-99.2c-1.7,30.3-26.9,54.4-57.6,54.4s-55.9-24.1-57.6-54.4
	H58.3c-10.2,0-19.5-5.2-24.7-14c-5.3-8.8-5.5-19.4-0.7-28.4l25-46.9V417.4c0-71.6,48.1-132.1,113.6-151.1v-57.8
	c0-24.1,19.6-43.6,43.6-43.6s43.6,19.6,43.6,43.6v57.8c65.5,19,113.6,79.5,113.6,151.1v115.8L397.2,580z M376.7,596.6
	c0.5-0.8,1.5-3.1,0.1-5.7l-23.5-44.2H76.7l-23.5,44.2c-1.4,2.6-0.4,4.8,0.2,5.7c0.5,0.8,2,2.8,4.9,2.8h313.5
	C374.7,599.4,376.2,597.4,376.7,596.6z M349.1,523.6V417.4c0-74-60.2-134.1-134.1-134.1S80.9,343.4,80.9,417.4v106.2H349.1
	L349.1,523.6z M249.4,622.5h-68.9c1.6,17.6,16.4,31.4,34.4,31.4S247.8,640,249.4,622.5z M235.5,261.5v-53c0-11.3-9.2-20.5-20.5-20.5
	c-11.3,0-20.5,9.2-20.5,20.5v53c6.7-0.9,13.6-1.3,20.5-1.3C222,260.2,228.8,260.6,235.5,261.5z"/>
<g>
	<path class="st0" d="M376.8,590.9c1.4,2.6,0.4,4.8-0.1,5.7c-0.5,0.8-2,2.8-4.9,2.8H58.3c-2.9,0-4.4-2-4.9-2.8
		c-0.5-0.8-1.5-3.1-0.2-5.7l23.5-44.2h276.6L376.8,590.9z"/>
	<path class="st0" d="M349.1,417.4v106.2H80.9V417.4c0-74,60.2-134.1,134.1-134.1S349.1,343.4,349.1,417.4z M226.5,325.5
		c0-6.4-5.2-11.5-11.5-11.5c-57,0-103.4,46.4-103.4,103.4c0,6.4,5.2,11.5,11.5,11.5s11.5-5.2,11.5-11.5c0-44.3,36-80.3,80.3-80.3
		C221.4,337.1,226.5,331.9,226.5,325.5z"/>
</g>
<path class="st1" d="M180.6,622.5h68.9c-1.6,17.6-16.4,31.4-34.4,31.4S182.2,640,180.6,622.5z"/>
<path d="M215,314c6.4,0,11.5,5.2,11.5,11.5c0,6.4-5.2,11.5-11.5,11.5c-44.3,0-80.3,36-80.3,80.3c0,6.4-5.2,11.5-11.5,11.5
	s-11.5-5.2-11.5-11.5C111.6,360.4,158,314,215,314z"/>
</svg>
