<?xml version="1.0" encoding="utf-8"?>
<!-- Generator: Adobe Illustrator 19.0.0, SVG Export Plug-In . SVG Version: 6.00 Build 0)  -->
<svg version="1.1" id="Layer_1" xmlns="http://www.w3.org/2000/svg" xmlns:xlink="http://www.w3.org/1999/xlink" x="0px" y="0px"
	 viewBox="-41 164.9 512 512" style="enable-background:new -41 164.9 512 512;" xml:space="preserve">
<style type="text/css">
	.st0{fill:#EA4C58;}
	.st1{fill:#F5F7FA;}
	.st2{fill:#080808;}
</style>
<path class="st0" d="M383,413.9l-34-43l-29,14.5l-51.2,8.5l-42.7,3c0,0-55.1,3-58.6,2.5s-52.5-9-52.5-9l-44-12.5l-22.5,29.5
	l-13.5,51l3.5,62.5l30,70.7l50.9,47.3l67.6,23h55.5l40-14.5l50.3-30l42.7-57.8l14.6-96L383,413.9z"/>
<path class="st1" d="M340.6,367.7c0,15-56,27.2-125.2,27.2S90.3,382.7,90.3,367.7c0-15,56-27.2,125.2-27.2
	C284.6,340.5,340.6,352.7,340.6,367.7z"/>
<path class="st0" d="M332.8,218.2l-106.7,18.7l163.9,80C390,316.9,333.7,220.9,332.8,218.2z"/>
<g>
	<path class="st2" d="M95,439.1c4.2-4.2,4.2-10.9,0-15.1c-4.2-4.2-10.9-4.2-15.1,0c-4.2,4.2-4.2,10.9,0,15.1
		C84,443.3,90.8,443.3,95,439.1z"/>
	<path class="st2" d="M137.6,439.1c4.2-4.2,4.2-10.9,0-15.1c-4.2-4.2-10.9-4.2-15.1,0c-4.2,4.2-4.2,10.9,0,15.1
		C126.7,443.3,133.5,443.3,137.6,439.1z"/>
	<path class="st2" d="M180.3,439.1c4.2-4.2,4.2-10.9,0-15.1c-4.2-4.2-10.9-4.2-15.1,0c-4.2,4.2-4.2,10.9,0,15.1
		C169.4,443.3,176.1,443.3,180.3,439.1z"/>
	<path class="st2" d="M223,439.1c4.2-4.2,4.2-10.9,0-15.1c-4.2-4.2-10.9-4.2-15.1,0c-4.2,4.2-4.2,10.9,0,15.1S218.8,443.3,223,439.1
		z"/>
	<path class="st2" d="M265.6,439.1c4.2-4.2,4.2-10.9,0-15.1c-4.2-4.2-10.9-4.2-15.1,0c-4.2,4.2-4.2,10.9,0,15.1
		C254.7,443.3,261.5,443.3,265.6,439.1z"/>
	<path class="st2" d="M308.3,439.1c4.2-4.2,4.2-10.9,0-15.1c-4.2-4.2-10.9-4.2-15.1,0c-4.2,4.2-4.2,10.9,0,15.1
		C297.4,443.3,304.1,443.3,308.3,439.1z"/>
	<path class="st2" d="M335.9,424c-4.2,4.2-4.2,10.9,0,15.1s10.9,4.2,15.1,0c4.2-4.2,4.2-10.9,0-15.1
		C346.8,419.8,340.1,419.8,335.9,424z"/>
	<path class="st2" d="M101.2,466.7c-4.2,4.2-4.2,10.9,0,15.1c4.2,4.2,10.9,4.2,15.1,0c4.2-4.2,4.2-10.9,0-15.1
		C112.1,462.5,105.4,462.5,101.2,466.7z"/>
	<path class="st2" d="M73.6,466.7c-4.2-4.2-10.9-4.2-15.1,0c-4.2,4.2-4.2,10.9,0,15.1c4.2,4.2,10.9,4.2,15.1,0
		C77.8,477.6,77.8,470.8,73.6,466.7z"/>
	<path class="st2" d="M143.9,466.7c-4.2,4.2-4.2,10.9,0,15.1c4.2,4.2,10.9,4.2,15.1,0c4.2-4.2,4.2-10.9,0-15.1
		C154.8,462.5,148,462.5,143.9,466.7z"/>
	<path class="st2" d="M186.6,466.7c-4.2,4.2-4.2,10.9,0,15.1c4.2,4.2,10.9,4.2,15.1,0c4.2-4.2,4.2-10.9,0-15.1
		S190.7,462.5,186.6,466.7z"/>
	<path class="st2" d="M229.2,466.7c-4.2,4.2-4.2,10.9,0,15.1c4.2,4.2,10.9,4.2,15.1,0c4.2-4.2,4.2-10.9,0-15.1
		C240.1,462.5,233.4,462.5,229.2,466.7z"/>
	<path class="st2" d="M271.9,466.7c-4.2,4.2-4.2,10.9,0,15.1c4.2,4.2,10.9,4.2,15.1,0c4.2-4.2,4.2-10.9,0-15.1
		C282.8,462.5,276.1,462.5,271.9,466.7z"/>
	<path class="st2" d="M314.6,466.7c-4.2,4.2-4.2,10.9,0,15.1c4.2,4.2,10.9,4.2,15.1,0c4.2-4.2,4.2-10.9,0-15.1
		S318.7,462.5,314.6,466.7z"/>
	<path class="st2" d="M357.2,481.8c4.2,4.2,10.9,4.2,15.1,0c4.2-4.2,4.2-10.9,0-15.1c-4.2-4.2-10.9-4.2-15.1,0
		C353.1,470.8,353.1,477.6,357.2,481.8z"/>
	<path class="st2" d="M95,509.3c-4.2-4.2-10.9-4.2-15.1,0c-4.2,4.2-4.2,10.9,0,15.1c4.2,4.2,10.9,4.2,15.1,0
		C99.1,520.3,99.1,513.5,95,509.3z"/>
	<path class="st2" d="M137.6,524.4c4.2-4.2,4.2-10.9,0-15.1c-4.2-4.2-10.9-4.2-15.1,0c-4.2,4.2-4.2,10.9,0,15.1
		C126.7,528.6,133.5,528.6,137.6,524.4z"/>
	<path class="st2" d="M180.3,524.4c4.2-4.2,4.2-10.9,0-15.1c-4.2-4.2-10.9-4.2-15.1,0c-4.2,4.2-4.2,10.9,0,15.1
		C169.4,528.6,176.1,528.6,180.3,524.4z"/>
	<path class="st2" d="M223,524.4c4.2-4.2,4.2-10.9,0-15.1c-4.2-4.2-10.9-4.2-15.1,0c-4.2,4.2-4.2,10.9,0,15.1
		C212.1,528.6,218.8,528.6,223,524.4z"/>
	<path class="st2" d="M265.6,524.4c4.2-4.2,4.2-10.9,0-15.1c-4.2-4.2-10.9-4.2-15.1,0c-4.2,4.2-4.2,10.9,0,15.1
		C254.7,528.6,261.5,528.6,265.6,524.4z"/>
	<path class="st2" d="M308.3,524.4c4.2-4.2,4.2-10.9,0-15.1c-4.2-4.2-10.9-4.2-15.1,0c-4.2,4.2-4.2,10.9,0,15.1
		C297.4,528.6,304.1,528.6,308.3,524.4z"/>
	<path class="st2" d="M335.9,509.3c-4.2,4.2-4.2,10.9,0,15.1c4.2,4.2,10.9,4.2,15.1,0c4.2-4.2,4.2-10.9,0-15.1
		C346.8,505.2,340.1,505.2,335.9,509.3z"/>
	<path class="st2" d="M108.4,548.9c-2.9-0.1-5.8,0.9-7.9,3.1c-4.2,4.2-4.2,10.9,0,15.1c2.2,2.2,5.1,3.2,7.9,3.1
		c2.9,0.1,5.8-0.9,7.9-3.1c4.2-4.2,4.2-10.9,0-15.1C114.1,549.8,111.2,548.8,108.4,548.9z"/>
	<path class="st2" d="M143.9,552c-4.2,4.2-4.2,10.9,0,15.1c4.2,4.2,10.9,4.2,15.1,0c4.2-4.2,4.2-10.9,0-15.1
		C154.8,547.8,148,547.8,143.9,552z"/>
	<path class="st2" d="M186.6,552c-4.2,4.2-4.2,10.9,0,15.1c4.2,4.2,10.9,4.2,15.1,0s4.2-10.9,0-15.1
		C197.5,547.8,190.7,547.8,186.6,552z"/>
	<path class="st2" d="M229.2,552c-4.2,4.2-4.2,10.9,0,15.1c4.2,4.2,10.9,4.2,15.1,0c4.2-4.2,4.2-10.9,0-15.1
		C240.1,547.8,233.4,547.8,229.2,552z"/>
	<path class="st2" d="M271.9,552c-4.2,4.2-4.2,10.9,0,15.1s10.9,4.2,15.1,0c4.2-4.2,4.2-10.9,0-15.1
		C282.8,547.8,276.1,547.8,271.9,552z"/>
	<path class="st2" d="M314.6,552c-4.2,4.2-4.2,10.9,0,15.1c4.2,4.2,10.9,4.2,15.1,0s4.2-10.9,0-15.1
		C325.5,547.8,318.7,547.8,314.6,552z"/>
	<path class="st2" d="M122.6,594.7c-4.2,4.2-4.2,10.9,0,15.1c4.2,4.2,10.9,4.2,15.1,0c4.2-4.2,4.2-10.9,0-15.1
		S126.7,590.5,122.6,594.7z"/>
	<path class="st2" d="M165.2,594.7c-4.2,4.2-4.2,10.9,0,15.1c4.2,4.2,10.9,4.2,15.1,0c4.2-4.2,4.2-10.9,0-15.1
		C176.1,590.5,169.4,590.5,165.2,594.7z"/>
	<path class="st2" d="M207.9,594.7c-4.2,4.2-4.2,10.9,0,15.1c4.2,4.2,10.9,4.2,15.1,0c4.2-4.2,4.2-10.9,0-15.1
		C218.8,590.5,212.1,590.5,207.9,594.7z"/>
	<path class="st2" d="M250.6,594.7c-4.2,4.2-4.2,10.9,0,15.1c4.2,4.2,10.9,4.2,15.1,0c4.2-4.2,4.2-10.9,0-15.1
		S254.7,590.5,250.6,594.7z"/>
	<path class="st2" d="M293.2,594.7c-4.2,4.2-4.2,10.9,0,15.1c4.2,4.2,10.9,4.2,15.1,0c4.2-4.2,4.2-10.9,0-15.1
		C304.1,590.5,297.4,590.5,293.2,594.7z"/>
	<path class="st2" d="M352.6,355.5c-0.3-0.3-0.6-0.5-1-0.8c-6.7-8.3-20.6-15-41.9-20.2c-7.1-1.7-14.8-3.2-23-4.5l18.8-37.1
		l85.6,43.4c1.5,0.8,3.2,1.2,4.8,1.2c2.9,0,5.8-1.2,7.9-3.5c3.2-3.5,3.7-8.8,1.1-12.8l-63-100.2l6.9-13.6c2.7-5.3,0.6-11.7-4.7-14.3
		s-11.7-0.6-14.3,4.7l-6.9,13.6l-118.1,8.4c-4.8,0.3-8.8,3.8-9.7,8.5c-1,4.7,1.4,9.5,5.6,11.6l85.6,43.4l-22.3,43.9
		c-15.7-1.5-32.6-2.3-49.9-2.3c-15.1,0-29.9,0.6-43.9,1.8l-51.5-154.5c0-0.1-0.1-0.2-0.1-0.3c-0.1-0.2-0.2-0.4-0.3-0.6
		c-0.1-0.1-0.1-0.3-0.2-0.4c-0.1-0.2-0.2-0.3-0.3-0.5s-0.2-0.3-0.3-0.5c-0.1-0.1-0.2-0.3-0.3-0.4c-0.1-0.2-0.3-0.4-0.4-0.6
		c0-0.1-0.1-0.1-0.2-0.2c0,0,0,0-0.1-0.1c-0.2-0.2-0.3-0.3-0.5-0.5c-0.1-0.1-0.2-0.2-0.3-0.3c-0.1-0.2-0.3-0.3-0.4-0.4
		c-0.1-0.1-0.3-0.2-0.4-0.3c-0.1-0.1-0.2-0.2-0.4-0.3c-0.2-0.1-0.3-0.3-0.5-0.4c-0.1,0-0.2-0.1-0.3-0.2c-0.2-0.1-0.4-0.2-0.6-0.3
		c-0.1,0-0.2-0.1-0.3-0.1c-0.2-0.1-0.4-0.2-0.7-0.3c-0.1,0-0.3-0.1-0.4-0.1c-0.2-0.1-0.4-0.1-0.6-0.2c-0.2-0.1-0.4-0.1-0.6-0.1
		c-0.1,0-0.3-0.1-0.4-0.1c-0.2,0-0.5-0.1-0.7-0.1c-0.1,0-0.2,0-0.3,0c-0.2,0-0.5,0-0.7,0c-0.1,0-0.2,0-0.4,0c-0.2,0-0.4,0-0.6,0
		c-0.2,0-0.3,0-0.5,0c-0.2,0-0.3,0-0.5,0.1c-0.2,0-0.4,0.1-0.6,0.1c-0.1,0-0.2,0.1-0.4,0.1c-0.2,0.1-0.5,0.1-0.7,0.2
		c0,0-0.1,0-0.1,0c-0.1,0-0.2,0.1-0.2,0.1c-0.2,0.1-0.4,0.2-0.7,0.3c-0.1,0.1-0.3,0.1-0.4,0.2c-0.2,0.1-0.3,0.2-0.5,0.3
		c-0.2,0.1-0.3,0.2-0.5,0.3c-0.1,0.1-0.3,0.2-0.4,0.2c-0.2,0.1-0.4,0.3-0.6,0.4c-0.1,0-0.1,0.1-0.2,0.2l-64,53.3
		c-4.5,3.8-5.1,10.5-1.4,15c2.1,2.5,5.2,3.8,8.2,3.8c2.4,0,4.8-0.8,6.8-2.5l52-43.3L148.7,329c-10.8,1.5-20.8,3.3-29.9,5.5
		c-21.2,5.2-35,11.8-41.7,20c-0.5,0.3-0.9,0.6-1.3,1c-32.3,27.9-52.3,76.1-52.3,125.8c0,49.3,20.3,98.9,55.7,136
		c17.6,18.5,38,33,60.5,43.3c23.8,10.8,48.8,16.3,74.5,16.3c25.7,0,50.8-5.5,74.5-16.3c22.5-10.3,42.9-24.8,60.5-43.3
		c35.4-37.1,55.7-86.7,55.7-136C404.9,431.5,384.8,383.4,352.6,355.5z M324.1,232.6l42.3,67.3l-121.6-61.7L324.1,232.6z
		 M214.2,346.2c13.6,0,26.9,0.5,39.5,1.5l-4.6,9.2h-68.7l-3.1-9.4C189.2,346.7,201.6,346.2,214.2,346.2z M129.1,354.1
		c8.1-1.8,17-3.2,26.5-4.4l2.4,7.2h-17c-5.9,0-10.7,4.8-10.7,10.7c0,5.9,4.8,10.7,10.7,10.7h31.7c0,0,0,0,0.1,0c0,0,0,0,0.1,0h82.8
		c0,0,0,0,0.1,0c0,0,0,0,0.1,0h34.2c5.9,0,10.7-4.8,10.7-10.7c0-5.9-4.8-10.7-10.7-10.7H273l3.4-6.8c8.2,1.1,15.9,2.4,22.9,4
		c23.3,5.1,32.6,10.8,35.1,13.5c-2.5,2.7-11.8,8.4-35.1,13.5c-23.4,5.1-53.6,7.9-85.1,7.9c-31.6,0-61.8-2.8-85.2-7.9
		c-23.3-5.1-32.6-10.8-35.1-13.5C96.5,364.9,105.8,359.1,129.1,354.1z M381.5,507.3c-1,0.5-2,1.2-2.9,2.1c-4,4-4.2,10.3-0.6,14.5
		c-2.4,9-5.5,17.8-9.2,26.2c-4-2-9-1.3-12.3,2c-4.2,4.2-4.2,10.9,0,15.1c0.8,0.8,1.6,1.4,2.5,1.9c-4.7,7.9-10,15.5-15.9,22.6
		c-2.6,0.1-5.2,1.1-7.2,3.1c-2.3,2.3-3.3,5.4-3.1,8.4c-13.4,13.8-28.9,25.5-45.8,34.2c0,0,0,0,0,0c-4.2-4.2-10.9-4.2-15.1,0
		c-2.2,2.3-3.3,5.2-3.1,8.1c-8,3-16.2,5.4-24.6,7.1c0,0,0.1-0.1,0.1-0.1c4.2-4.2,4.2-10.9,0-15.1c-4.2-4.2-10.9-4.2-15.1,0
		c-4.2,4.2-4.2,10.9,0,15.1c0.9,0.9,1.8,1.5,2.9,2c-5.9,0.7-11.9,1.1-17.9,1.1c-5.3,0-10.6-0.3-15.9-0.8c1.2-0.5,2.4-1.3,3.4-2.3
		c4.2-4.2,4.2-10.9,0-15.1c-4.2-4.2-10.9-4.2-15.1,0c-4.2,4.2-4.2,10.9,0,15.1c0.3,0.3,0.5,0.5,0.8,0.7c-8.7-1.6-17.1-3.8-25.4-6.8
		c0.4-3.2-0.5-6.6-3-9c-4.2-4.2-10.9-4.2-15.1,0c-0.3,0.3-0.5,0.6-0.8,0.9c-16.7-8.4-32.1-19.6-45.4-33c1.1-3.6,0.2-7.7-2.7-10.6
		c-2.6-2.6-6.2-3.6-9.6-2.9c-5.7-7-11-14.4-15.6-22.2c1.4-0.5,2.8-1.3,3.9-2.5c4.2-4.2,4.2-10.9,0-15.1c-3.7-3.8-9.5-4.1-13.7-1.2
		c-3.7-8.1-6.7-16.5-9.1-25.2c0.5-0.4,1-0.8,1.5-1.2c4.2-4.2,4.2-10.9,0-15.1c-1.6-1.6-3.6-2.6-5.6-2.9c-1.3-8.3-1.9-16.6-1.9-25.1
		c0-37.7,12.8-74.1,34.1-98.7c7.3,7.3,20.5,13.3,40,18c25.6,6.2,59.5,9.7,95.4,9.7c35.9,0,69.8-3.4,95.4-9.7
		c19.4-4.7,32.6-10.7,39.9-17.9c21.2,24.7,34,61,34,98.6C383.6,490,382.8,498.7,381.5,507.3z"/>
</g>
</svg>
