<?xml version="1.0" encoding="utf-8"?>
<!-- Generator: Adobe Illustrator 19.0.0, SVG Export Plug-In . SVG Version: 6.00 Build 0)  -->
<svg version="1.1" id="Capa_1" xmlns="http://www.w3.org/2000/svg" xmlns:xlink="http://www.w3.org/1999/xlink" x="0px" y="0px"
	 viewBox="-53 176.3 488.6 488.6" style="enable-background:new -53 176.3 488.6 488.6;" xml:space="preserve">
<style type="text/css">
	.st0{fill:#EA4C58;}
</style>
<g>
	<g>
		<path class="st0" d="M260.1,380.7l-37.3-2.7l-14.1-34.6c-2.9-7.2-9.8-11.8-17.5-11.8c-7.7,0-14.6,4.6-17.5,11.8L159.6,378
			l-37.3,2.7c-7.7,0.6-14.2,5.7-16.6,13c-2.4,7.3-0.1,15.3,5.8,20.3l28.6,24.1l-8.9,36.3c-1.4,5.7-0.2,11.5,3.4,16.1
			c3.6,4.6,9.2,7.3,14.9,7.3c3.5,0,6.9-1,10-2.9l31.8-19.7l31.8,19.7c3,1.9,6.4,2.9,10,2.9c5.7,0,11.3-2.7,14.9-7.3
			c3.6-4.5,4.9-10.4,3.4-16.1l-8.9-36.3l28.6-24.1c5.9-4.9,8.2-12.9,5.8-20.3C274.3,386.4,267.8,381.3,260.1,380.7z"/>
		<path d="M277.9,370.5l-46.9-3.4l-17.7-43.5c-3.7-9-12.3-14.8-22-14.8s-18.3,5.8-22,14.8l-17.7,43.5l-46.9,3.4
			c-9.7,0.7-17.8,7.1-20.8,16.3c-3,9.2-0.1,19.2,7.3,25.5l35.9,30.3l-11.2,45.6c-1.8,7.1-0.2,14.5,4.3,20.2
			c4.5,5.8,11.5,9.2,18.7,9.2c4.4,0,8.7-1.2,12.5-3.6l39.9-24.8l39.9,24.8c3.8,2.4,8.1,3.6,12.5,3.6c7.2,0,14.2-3.4,18.7-9.2
			c4.5-5.7,6.1-13.1,4.3-20.2l-11.2-45.6l35.9-30.3c7.4-6.2,10.3-16.2,7.3-25.5C295.7,377.6,287.5,371.2,277.9,370.5z M233.9,428.8
			c-3.6,3-5.1,7.8-4,12.3l12.6,51.1l-44.7-27.8c-4-2.5-9-2.5-12.9,0l-44.8,28l12.7-51.4c1.1-4.5-0.4-9.3-4-12.3l-40.3-34l52.5-3.8
			c4.6-0.3,8.7-3.3,10.5-7.6l19.8-48.7l19.9,48.8c1.8,4.3,5.8,7.3,10.5,7.6l52.5,3.8L233.9,428.8z"/>
		<path d="M414.1,428.4c-4.1-5.6-4.2-13.3-0.1-19l8.5-12.1c6.7-9.5,9.1-21.5,6.4-32.9s-10.1-21.1-20.4-26.6l-13-7
			c-6.2-3.3-9.5-10.1-8.4-17l2.5-14.6c1.9-11.5-1.2-23.3-8.5-32.4c-7.4-9.1-18.3-14.6-29.9-15.1l-14.9-0.5c-7-0.3-13-5-14.9-11.7
			l-4.1-14.2c-5-17.3-21.1-29.4-39.2-29.4c-5.5,0-11,1.1-16.1,3.3l-13.6,5.8c-6.3,2.7-14,1-18.5-4.1l-9.9-11
			c-7.7-8.6-18.8-13.6-30.3-13.6c-11.8,0-23,5.1-30.8,14l-9.6,11.3c-4.5,5.2-12.1,7-18.5,4.4l-13.7-5.6c-5-2-10.2-3.1-15.5-3.1
			c-18.3,0-34.5,12.3-39.3,30l-3.9,14.2c-1.8,6.7-7.8,11.5-14.7,11.9L29,254.3c-11.7,0.7-22.5,6.3-29.7,15.5
			c-7.2,9.2-10.1,21-8,32.5l2.7,14.5c1.3,6.9-2,13.8-8.1,17.2l-12.9,7.2c-10.2,5.7-17.5,15.5-20,26.9s0,23.4,6.9,32.8l8.7,11.9
			c4.1,5.6,4.2,13.3,0.1,19l-8.5,12.1c-6.7,9.5-9.1,21.5-6.4,32.9s10.1,21,20.4,26.6l13,7c6.2,3.3,9.5,10.1,8.4,17L-6.9,542
			c-1.9,11.5,1.2,23.3,8.5,32.4c7.4,9.1,18.3,14.6,29.9,15.1l14.8,0.6c7,0.3,13,5,14.9,11.7l4.1,14.2c5,17.3,21.1,29.4,39.2,29.4
			l0,0c5.5,0,11-1.1,16.1-3.3l13.6-5.8c6.3-2.7,14-1,18.5,4.1l9.9,11c7.7,8.6,18.8,13.5,30.3,13.5c11.8,0,23-5.1,30.8-14l9.6-11.3
			c4.5-5.2,12.1-7,18.5-4.4l13.7,5.6c5,2,10.2,3.1,15.5,3.1c18.3,0,34.5-12.3,39.3-30l3.9-14.2c1.8-6.7,7.8-11.5,14.7-11.9l14.7-0.8
			c11.7-0.7,22.5-6.3,29.7-15.5s10.1-21,8-32.5l-2.7-14.5c-1.3-6.9,2-13.8,8.1-17.1l12.9-7.2c10.2-5.7,17.5-15.5,20-26.9
			s0-23.4-6.9-32.8L414.1,428.4z M405.8,467.9c-1,4.6-3.9,8.4-8,10.7l-12.9,7.2c-15.3,8.5-23.5,25.8-20.3,43l2.7,14.5
			c0.9,4.6-0.3,9.3-3.2,13c-2.9,3.7-7.1,5.9-11.8,6.2l-14.7,0.8c-17.5,1-32.3,13-37,29.9l-3.9,14.2c-1.9,7.1-8.4,12-15.7,12
			c-2.1,0-4.2-0.4-6.2-1.2l-13.7-5.6c-5-2-10.2-3.1-15.5-3.1c-11.8,0-23,5.1-30.8,14l-9.7,11.1c-3.1,3.6-7.5,5.6-12.3,5.6
			c-4.7,0-9-1.9-12.1-5.4l-9.9-11c-7.7-8.6-18.8-13.6-30.4-13.6c-5.6,0-11,1.1-16.1,3.3l-13.6,5.8c-2.1,0.9-4.2,1.3-6.4,1.3
			c-7.2,0-13.6-4.8-15.6-11.7l-4.1-14.2c-4.9-16.8-19.9-28.6-37.4-29.4l-14.8-0.6c-4.7-0.2-9-2.3-11.9-6c-3-3.7-4.2-8.3-3.4-12.9
			l2.4-14.6c2.9-17.3-5.5-34.4-21-42.7l-13-7c-4.2-2.2-7.1-6-8.1-10.6c-1.1-4.6-0.2-9.3,2.5-13.1l8.5-12.1
			c10.1-14.3,10-33.4-0.4-47.6l-8.7-11.9c-2.8-3.8-3.8-8.5-2.7-13.1c1-4.6,3.9-8.4,8-10.7l12.9-7.2c15.3-8.5,23.5-25.8,20.3-43
			l-2.5-14.3c-0.9-4.7,0.3-9.3,3.2-13c2.9-3.7,7.1-5.9,11.8-6.2l14.7-0.9c17.5-1,32.3-13,37-29.9l3.9-14.2c1.9-7.1,8.4-12,15.7-12
			c2.1,0,4.2,0.4,6.2,1.2l13.7,5.6c5,2,10.2,3.1,15.5,3.1c11.8,0,23-5.1,30.8-14l9.7-11.1c3.1-3.6,7.5-5.6,12.3-5.6
			c4.7,0,9,1.9,12.1,5.4l9.9,11c7.7,8.6,18.8,13.6,30.4,13.6c5.6,0,11-1.1,16.1-3.3l13.6-5.8c2.1-0.9,4.2-1.3,6.4-1.3
			c7.2,0,13.6,4.8,15.6,11.7l4.1,14.2c4.9,16.8,19.9,28.6,37.4,29.4l14.8,0.6c4.7,0.2,9,2.3,11.9,6c3,3.7,4.2,8.3,3.4,12.9
			l-2.4,14.6c-2.9,17.3,5.5,34.4,21,42.7l13,7c4.2,2.2,7.1,6,8.2,10.6s0.2,9.3-2.5,13.1l-8.5,12.1c-10.1,14.3-10,33.4,0.4,47.6
			l8.7,11.9C405.8,458.6,406.8,463.2,405.8,467.9z"/>
	</g>
</g>
</svg>
