<?xml version="1.0" encoding="utf-8"?>
<!-- Generator: Adobe Illustrator 19.0.0, SVG Export Plug-In . SVG Version: 6.00 Build 0)  -->
<svg version="1.1" id="Layer_1" xmlns="http://www.w3.org/2000/svg" xmlns:xlink="http://www.w3.org/1999/xlink" x="0px" y="0px"
	 viewBox="-41 164.9 512 512" style="enable-background:new -41 164.9 512 512;" xml:space="preserve">
<style type="text/css">
	.st0{fill:#FFFFFF;}
	.st1{fill:#E94C58;}
	.st2{fill:#EA4C58;}
</style>
<path d="M471,254.6c0,26.1-11.2,49.6-29,66c14.7,32.6,22.2,67.4,22.2,103.6c0,139.3-113.3,252.6-252.6,252.6S-41,563.6-41,424.3
	S72.3,171.7,211.6,171.7c36.2,0,71,7.5,103.6,22.2c16.4-17.8,39.9-29,66-29C430.7,164.9,471,205.1,471,254.6z M438.9,424.3
	c0-31.1-6.1-61-18.1-89.1c-11.9,5.9-25.3,9.2-39.5,9.2c-49.5,0-89.7-40.3-89.7-89.7c0-14.2,3.3-27.6,9.2-39.5
	c-28.1-12-58-18.1-89.1-18.1C86.2,197-15.7,299-15.7,424.3s102,227.3,227.3,227.3S438.9,549.6,438.9,424.3z M445.7,254.6
	c0-35.6-28.9-64.5-64.5-64.5c-35.6,0-64.5,28.9-64.5,64.5c0,35.6,28.9,64.5,64.5,64.5C416.8,319.1,445.7,290.2,445.7,254.6z"/>
<path class="st0" d="M381.2,190.2c35.6,0,64.5,28.9,64.5,64.5c0,35.6-28.9,64.5-64.5,64.5c-35.6,0-64.5-28.9-64.5-64.5
	C316.8,219.1,345.7,190.2,381.2,190.2z M427.4,254.6c0-7-5.6-12.6-12.6-12.6h-67c-7,0-12.6,5.6-12.6,12.6c0,7,5.7,12.6,12.6,12.6h67
	C421.7,267.3,427.4,261.6,427.4,254.6z"/>
<g>
	<path d="M343,525.1v36.3c0,13.6-11.1,24.7-24.7,24.7H104.9c-13.6,0-24.7-11.1-24.7-24.7v-36.3c0-30.1,24-54.6,53.8-55.6
		c0.3,0,31.3,1.3,40-31.4c-18-13.8-31.2-37.3-35.1-65.4c-0.7-0.8-1.3-1.8-1.7-2.9c-1.6-3.9-2.9-8-4-12.1c-10.5-41.3,9.1-83,43.7-93
		c3.4-1,6.9-1.6,10.5-2c9.7-4.7,20-7.1,30.6-7.1c41.3,0,74.9,36.1,74.9,80.5c0,11.5-2.2,22.7-6.6,33.1c-0.5,1.1-1.1,2.1-1.8,2.9
		c-2.5,18.7-9.2,35.9-19.4,49.7c-4.8,6.5-10.1,11.9-15.9,16.3c10.6,32.9,39.7,31.3,40,31.3C319,470.5,343,495,343,525.1z
		 M320.2,561.4v-36.3c0-18.1-14.8-32.9-32.9-32.9c-0.3,0-13.1-0.3-22-4.4c-14.6,13.3-33.8,20.8-53.7,20.8s-39.1-7.5-53.8-20.8
		c-8.1,3.6-21.8,4.4-22.1,4.4c-18.1,0-32.9,14.8-32.9,32.9v36.3c0,1.1,0.9,2,2,2h213.3C319.3,563.4,320.2,562.5,320.2,561.4z
		 M250.4,325.5c7.2,0,13.9,2.1,19.5,5.6c-2.3-29.5-24.7-52.8-52-52.8c-7.7,0-15.2,1.9-22.3,5.6c-1.5,0.8-3.1,1.2-4.8,1.3
		c-2.7,0.1-5.3,0.5-7.8,1.3c-20.8,6-33,30.6-29.6,57.1c5.1-6.8,8.9-14.6,11.1-22.9c1.4-5.5,6.2-9.4,11.8-9.8
		c5.6-0.4,10.8,2.9,12.9,8.2c0.7,1.7,1.9,3.3,3.4,4.4c1.8,1.3,3.9,2,6.1,2C199,325.5,250.4,325.5,250.4,325.5z M262.9,355.9
		c-2.3-4.5-7.1-7.6-12.5-7.6H199c-6.6,0-12.9-1.9-18.3-5.5c-4.8,9.8-11.4,18.7-19.4,26.2c4.6,33.9,26,59.7,50.3,59.7
		c11.5,0,19.9-5.8,20.4-6.1C250.1,411.3,262.7,385.7,262.9,355.9z M245.2,475c-7.5-7.1-13.3-16.1-16.6-26.1
		c-5.5,1.6-11.2,2.5-17,2.5c-5.8,0-11.6-0.9-17-2.5c-3.3,10.1-9.1,19-16.6,26.1c9.7,7,21.4,11,33.6,11
		C223.8,485.9,235.5,482,245.2,475z"/>
</g>
<g>
	<path class="st1" d="M320.2,525.1v36.3c0,1.1-0.9,2-2,2H104.9c-1.1,0-2-0.9-2-2v-36.3c0-18.1,14.8-32.9,32.9-32.9
		c0.3,0,13.9-0.8,22.1-4.4c14.6,13.3,33.8,20.8,53.8,20.8s39.1-7.5,53.7-20.8c8.9,4,21.7,4.4,22,4.4
		C305.5,492.2,320.2,506.9,320.2,525.1z"/>
	<path class="st1" d="M269.9,331.1c-5.7-3.6-12.4-5.6-19.5-5.6H199c-2.2,0-4.3-0.7-6.1-2c-1.5-1.1-2.7-2.7-3.4-4.4
		c-2.1-5.2-7.3-8.5-12.9-8.2c-5.7,0.4-10.4,4.3-11.8,9.8c-2.2,8.3-6,16.1-11.1,22.9c-3.4-26.5,8.8-51.1,29.6-57.1
		c2.5-0.7,5.1-1.1,7.8-1.3c1.7-0.1,3.3-0.5,4.8-1.3c7.1-3.7,14.6-5.6,22.3-5.6C245.2,278.4,267.6,301.6,269.9,331.1z"/>
</g>
<g>
	<path class="st0" d="M250.4,348.2c5.4,0,10.2,3.1,12.5,7.6c-0.2,29.8-12.8,55.4-30.9,66.7c-0.6,0.3-8.9,6.1-20.4,6.1
		c-24.3,0-45.8-25.8-50.3-59.7c8-7.5,14.6-16.4,19.4-26.2c5.4,3.6,11.7,5.5,18.3,5.5H250.4L250.4,348.2z"/>
	<path class="st0" d="M228.6,448.9c3.3,10.1,9.1,19,16.6,26.1c-9.7,7-21.4,10.9-33.6,10.9c-12.2,0-23.9-3.9-33.6-11
		c7.5-7.1,13.3-16,16.6-26.1c5.5,1.7,11.2,2.5,17,2.5C217.4,451.4,223.1,450.5,228.6,448.9z"/>
</g>
<path class="st2" d="M416.2,233.4l-18.4-1.3l-6.9-17.1c-1.5-3.5-4.8-5.8-8.6-5.8s-7.2,2.3-8.6,5.8l-6.9,17.1l-18.4,1.3
	c-3.8,0.3-7,2.8-8.2,6.4c-1.2,3.6,0,7.5,2.9,10l14.1,11.9l-4.4,17.9c-0.7,2.8-0.1,5.7,1.7,7.9c1.8,2.3,4.5,3.6,7.3,3.6
	c1.7,0,3.4-0.5,4.9,0.6l15.7-9.7l15.7,7.7c1.5,0.9,3.2,1.4,4.9,1.4c2.8,0,5.6-1.3,7.3-3.6c1.8-2.2,2.4-5.1,1.7-7.9l-4.4-17.9
	l14.1-11.9c2.9-2.4,4-6.4,2.9-10C423.2,236.2,420,233.7,416.2,233.4z"/>
</svg>
